Coordinates
version=1
nRows=16
nColumns=40
inDegrees=yes

Units are S.I. units (second, meters, Newtons, ...)
Angles are in degrees.

endheader
time	pelvis_tilt	pelvis_list	pelvis_rotation	pelvis_tx	pelvis_ty	pelvis_tz	hip_flexion_r	hip_adduction_r	hip_rotation_r	knee_angle_r	knee_angle_r_beta	ankle_angle_r	subtalar_angle_r	mtp_angle_r	hip_flexion_l	hip_adduction_l	hip_rotation_l	knee_angle_l	knee_angle_l_beta	ankle_angle_l	subtalar_angle_l	mtp_angle_l	lumbar_extension	lumbar_bending	lumbar_rotation	arm_flex_r	arm_add_r	arm_rot_r	elbow_flex_r	pro_sup_r	wrist_flex_r	wrist_dev_r	arm_flex_l	arm_add_l	arm_rot_l	elbow_flex_l	pro_sup_l	wrist_flex_l	wrist_dev_l
      0.00000000	      2.08200525	     -2.04447482	     -0.31024392	     -1.40062145	      0.87986876	     -1.24738419	     24.91453911	     -4.13025724	    -20.81842804	    -21.06331386	     -0.36762418	     -6.36172618	      7.66359681	     -5.69100929	    -14.78778499	     -0.55835549	      5.29428283	    -16.01045003	     -0.27943507	     16.60610462	     11.48671287	     -2.25452582	    -13.84472311	      6.23572824	     -7.41538553	      4.45716953	    -10.30417639	     19.78011361	     14.46022849	     89.95437384	      0.00000000	      0.00000000	     21.99376553	     14.06214763	    -22.62389342	     30.06586993	     89.95437384	      0.00000000	      0.00000000
      0.01000000	      1.92582016	     -2.34893227	     -0.36493312	     -1.39327315	      0.87909240	     -1.24619846	     24.91355183	     -3.78302177	    -21.08894310	    -20.72784358	     -0.36176912	     -6.07792994	      7.70735999	     -5.76710619	    -15.02252491	     -0.15682771	      5.06112904	    -16.26370853	     -0.28385526	     16.77348209	     11.51218482	     -2.23146555	    -13.62500833	      6.64909659	     -7.43800808	      4.40914817	    -10.22396729	     19.77762443	     14.18115724	     89.95437384	      0.00000000	      0.00000000	     21.83302234	     13.66169548	    -22.67715849	     30.38024963	     89.95437384	      0.00000000	      0.00000000
      0.02000000	      1.94875475	     -2.66393961	     -0.26100660	     -1.38584012	      0.87862210	     -1.24537548	     24.56792265	     -3.49826585	    -21.62191537	    -20.29326495	     -0.35418429	     -5.77408848	      7.79388995	     -5.88352702	    -15.21946837	      0.32300454	      4.97956136	    -16.99727033	     -0.29665833	     16.64655287	     11.52737437	     -2.07814687	    -13.59830324	      7.08195549	     -7.37876104	      4.15123515	    -10.28597143	     19.57081841	     14.29706943	     89.95437384	      0.00000000	      0.00000000	     21.82337543	     13.21143705	    -23.07211580	     30.55644901	     89.95437384	      0.00000000	      0.00000000
      0.03000000	      1.76824127	     -2.94109511	     -0.24263222	     -1.37806015	      0.87800635	     -1.24418672	     24.44292927	     -3.18198108	    -21.80886695	    -19.98996881	     -0.34889077	     -5.59342958	      7.87363379	     -5.97640132	    -15.47884864	      0.71935566	      4.83682849	    -17.28523070	     -0.30168419	     16.37035789	     11.30758845	     -1.87618485	    -13.31970990	      7.45362444	     -7.39999851	      3.98841272	    -10.25704220	     19.45205813	     14.20288264	     89.95437384	      0.00000000	      0.00000000	     21.56678334	     12.87784754	    -23.14110901	     31.05594317	     89.95437384	      0.00000000	      0.00000000
      0.04000000	      1.57443848	     -3.10818517	     -0.24865921	     -1.36989678	      0.87756030	     -1.24289475	     24.30783835	     -2.96560250	    -22.00611131	    -19.85992764	     -0.34662113	     -5.38734336	      7.81381256	     -5.99652251	    -15.46429398	      1.03768052	      4.99644977	    -18.00855664	     -0.31430861	     16.06038623	     11.40734515	     -1.66196074	    -12.93577196	      7.71187673	     -7.52386057	      3.91046078	    -10.17324374	     19.50283271	     13.91976013	     89.95437384	      0.00000000	      0.00000000	     21.22134601	     12.53540641	    -23.06206142	     31.17514901	     89.95437384	      0.00000000	      0.00000000
      0.05000000	      1.28633190	     -3.02694219	     -0.28150359	     -1.36191089	      0.87696282	     -1.24143440	     24.42326379	     -2.99376765	    -21.72137053	    -20.10821270	     -0.35095452	     -5.36793467	      7.56927696	     -5.88618575	    -15.47115366	      1.06717405	      4.88192699	    -18.50624056	     -0.32299483	     15.66593834	     11.07318802	     -1.60178909	    -12.57435258	      7.66396484	     -7.48107010	      3.56916490	    -10.20883679	     19.41712593	     14.19259713	     89.95437384	      0.00000000	      0.00000000	     20.91431462	     12.21000370	    -22.99932005	     31.48493636	     89.95437384	      0.00000000	      0.00000000
      0.06000000	      1.00218788	     -3.53917760	     -0.35279607	     -1.35292951	      0.87667135	     -1.23978069	     24.12233057	     -2.31540881	    -21.91743522	    -19.87227750	     -0.34683667	     -5.33278109	      7.64218855	     -5.92119099	    -15.47632307	      1.71599929	      4.67663692	    -19.09958831	     -0.33335070	     15.26370587	     11.38686505	     -1.29652639	    -12.07188826	      8.28348371	     -7.18352145	      3.31820680	    -10.21812930	     19.33921440	     13.90680147	     89.95437384	      0.00000000	      0.00000000	     20.55201343	     11.65622407	    -22.96580725	     31.35977142	     89.95437384	      0.00000000	      0.00000000
      0.07000000	      0.85442917	     -3.97420977	     -0.21954542	     -1.34427236	      0.87660275	     -1.23798249	     23.70323547	     -1.73121981	    -22.09080416	    -19.85024826	     -0.34645219	     -6.14506298	      7.33687997	     -5.84842527	    -15.73741851	      2.34602501	      4.35977458	    -19.43663951	     -0.33923336	     14.82862859	     11.66790538	     -0.88621365	    -11.73488913	      8.77078165	     -7.10320374	      3.08090708	    -10.21501099	     19.15698363	     13.80385426	     89.95437384	      0.00000000	      0.00000000	     20.32631767	     11.17146542	    -22.92555952	     31.10247337	     89.95437384	      0.00000000	      0.00000000
      0.08000000	      0.83635915	     -4.35242942	     -0.03256686	     -1.33517731	      0.87699864	     -1.23630346	     22.96037002	     -1.11344468	    -21.99679910	    -19.53488837	     -0.34094812	     -7.40839728	      6.39748472	     -5.82774503	    -16.08111704	      2.84928851	      3.74614030	    -19.88871215	     -0.34712351	     13.87872970	     12.17527256	      0.34181407	    -11.57791205	      9.25155346	     -7.11505106	      2.80601138	    -10.19424803	     18.46160707	     13.91126495	     89.95437384	      0.00000000	      0.00000000	     19.81677562	     10.74680235	    -22.35713517	     31.23495136	     89.95437384	      0.00000000	      0.00000000
      0.09000000	      0.45939020	     -4.64561653	     -0.24944660	     -1.32576984	      0.87690744	     -1.23398433	     22.94714474	     -0.54938359	    -21.80498901	    -19.80343058	     -0.34563507	     -7.02868847	      6.28292377	     -5.87076740	    -16.06153690	      3.25292346	      3.47825036	    -20.36063869	     -0.35536018	     13.23175888	     12.18674757	      0.67832040	    -10.99586676	      9.56406180	     -6.76064050	      2.52925747	    -10.19577031	     18.44452937	     13.74175441	     89.95437384	      0.00000000	      0.00000000	     19.28775681	     10.35182421	    -22.27509092	     31.08540794	     89.95437384	      0.00000000	      0.00000000
      0.10000000	      0.22781840	     -5.03736191	     -0.27776097	     -1.31631994	      0.87744937	     -1.23202141	     22.55752104	      0.18985482	    -21.42723662	    -19.55324289	     -0.34126847	     -7.06323778	      4.90849878	     -9.81927899	    -16.11771319	      3.69920179	      2.99755904	    -21.15383814	     -0.36920412	     14.72786695	     11.00471336	     17.01573097	    -10.57976749	     10.03630486	     -6.57386719	      2.26642363	    -10.26404354	     18.29174404	     13.75615452	     89.95437384	      0.00000000	      0.00000000	     18.76301001	      9.81394267	    -21.70439923	     30.78725231	     89.95437384	      0.00000000	      0.00000000
      0.11000000	     -0.08595080	     -5.34893620	     -0.38685788	     -1.30675907	      0.87804552	     -1.22969559	     22.42179386	      0.73109139	    -21.25608782	    -19.79367436	     -0.34546479	     -6.70317211	      4.75672466	     -9.69275215	    -15.98607158	      4.13951420	      2.93830683	    -21.80951800	     -0.38064790	     13.48685572	     11.37235854	     17.01150937	    -10.10192565	     10.39739817	     -6.38432567	      2.12898596	    -10.25129524	     18.32617583	     13.55441252	     89.95437384	      0.00000000	      0.00000000	     18.16099092	      9.46887860	    -21.44932085	     30.57188827	     89.95437384	      0.00000000	      0.00000000
      0.12000000	     -0.44115838	     -5.72413419	     -0.44370748	     -1.29752982	      0.87866415	     -1.22730611	     22.31517599	      1.37819414	    -20.98509630	    -20.06573574	     -0.35021316	     -6.20641142	      4.49814242	     -9.58312166	    -16.05842955	      4.62940339	      2.37920730	    -22.02153070	     -0.38434822	     12.49039451	     11.54857968	     17.02561011	     -9.63364767	     10.82004879	     -6.10129275	      1.98371585	    -10.27023183	     18.38267503	     13.43410023	     89.95437384	      0.00000000	      0.00000000	     17.62484618	      9.10337735	    -21.24853550	     30.38615987	     89.95437384	      0.00000000	      0.00000000
      0.13000000	     -0.38400387	     -6.09847216	     -0.45115893	     -1.28755265	      0.88006555	     -1.22511766	     21.43579463	      2.22286333	    -20.10098699	    -19.79778479	     -0.34553653	     -5.41363478	      3.42380327	     -9.23156677	    -16.55060066	      5.00352780	      1.72139027	    -22.25900568	     -0.38849294	     10.65001435	     12.82434770	     17.90750972	     -9.48280994	     11.29360015	     -5.82375235	      1.83817343	    -10.33152045	     18.20752826	     13.34974662	     89.95437384	      0.00000000	      0.00000000	     17.07728979	      8.52849087	    -20.48065617	     29.83700982	     89.95437384	      0.00000000	      0.00000000
      0.14000000	     -0.70899714	     -6.39229615	     -0.51691666	     -1.27776278	      0.88102443	     -1.22261731	     21.15409220	      2.79832608	    -19.75721645	    -19.94780696	     -0.34815491	     -4.71694722	      3.26509445	     -9.08874158	    -16.41600514	      5.43657803	      1.47756548	    -22.78322324	     -0.39764226	      9.04687687	     13.15146804	     18.10445243	     -9.07449431	     11.56573681	     -5.81961340	      1.90373601	    -10.27047424	     18.35047508	     13.12730586	     89.95437384	      0.00000000	      0.00000000	     16.25613033	      8.39960002	    -20.16588831	     29.81291678	     89.95437384	      0.00000000	      0.00000000
      0.15000000	     -0.97222266	     -6.62761498	     -0.66164477	     -1.26798681	      0.88210731	     -1.22009808	     20.80056100	      3.28181369	    -19.54263844	    -20.09260503	     -0.35068211	     -4.06866049	      3.09847812	     -8.97642113	    -16.33441517	      5.73233091	      1.22304973	    -23.31976395	     -0.40700666	      7.43791868	     13.43265372	     18.25654867	     -8.66940492	     11.79540489	     -5.53245170	      1.90915910	    -10.25254689	     18.50512434	     12.80677526	     89.95437384	      0.00000000	      0.00000000	     15.53290507	      8.18003885	    -19.97729104	     29.62981811	     89.95437384	      0.00000000	      0.00000000
